<svg width="48" height="45" viewBox="0 0 48 45" fill="none" xmlns="http://www.w3.org/2000/svg">
<path d="M21.3291 28.1461C21.4307 29.0609 21.6594 29.4167 22.0406 29.6454C22.0406 29.6962 22.0406 29.8232 22.0406 29.8232H18.8895C18.8895 29.8232 18.8895 29.6962 18.8895 29.6454C19.2961 29.4167 19.3978 28.9847 19.3215 28.1461C19.2453 27.3075 18.8641 23.0129 18.7371 21.6915C18.5592 19.7856 17.6189 17.6256 15.4335 18.0576C12.5874 18.6167 12.0538 23.9277 12.0538 26.0623V28.1461C12.0538 29.0355 12.2316 29.4167 12.6382 29.6454C12.6382 29.6962 12.6382 29.8232 12.6382 29.8232H9.48717C9.48717 29.8232 9.48717 29.6962 9.48717 29.6454C9.86835 29.4167 10.0462 29.0355 10.0462 28.1461V19.5569C10.0462 18.6675 9.97 18.4134 9.48717 18.3371C9.48717 18.2863 9.48717 18.1592 9.48717 18.1592L11.8759 17.6002H12.0538V23.9023C12.3841 21.0562 13.2481 17.6002 16.5516 17.6002C18.6354 17.6002 20.4142 19.0232 20.7192 22.0727C20.9733 24.5376 21.2274 27.2058 21.3291 28.1461ZM36.4731 29.1371C37.9978 29.1117 38.5823 29.9757 38.5823 31.0938C38.5823 33.1014 36.0411 34.3974 33.8811 34.3974C32.0514 34.3974 31.162 33.4063 30.5521 32.5677C29.3832 33.2792 28.1126 33.9399 26.9183 34.0162C25.5714 34.1178 24.555 33.635 24.5295 32.4661C24.4787 30.9159 26.9183 30.0774 28.6971 29.8995C25.7239 29.5437 23.3098 27.5616 23.3098 24.3343C23.3098 20.1414 26.8166 17.6002 30.2218 17.6002C31.2383 17.6002 32.2039 17.8035 33.0679 18.1592L37.4133 16.8887L37.5658 18.1592L33.4745 18.3371C35.3041 19.2265 36.5747 20.9291 36.5747 23.2416C36.5747 27.3075 33.0933 29.9757 29.6627 29.9757C29.5865 29.9757 29.5103 29.9757 29.4086 29.9503C27.7314 30.0265 25.7747 30.611 25.9018 32.1357C25.9526 32.9743 26.3846 33.5842 27.3248 33.5842C28.6208 33.6096 30.0947 32.6185 31.7211 31.6275C33.6015 30.5094 35.1771 29.1879 36.4731 29.1371ZM25.4698 25.1475C26.3592 28.1969 28.7479 30.3823 31.6448 29.5183C34.5164 28.6797 35.3295 25.5032 34.4401 22.4284C33.5507 19.379 31.162 17.219 28.2651 18.0576C25.3681 18.8962 24.5804 22.0727 25.4698 25.1475ZM37.0321 31.5258C37.083 30.3569 36.778 29.4929 35.7615 29.6454C34.9738 29.747 33.3474 30.8397 31.8735 31.7545C31.4924 31.9832 31.1112 32.2119 30.73 32.4407C31.2128 33.1522 32.0006 34.1941 33.8811 34.2195C35.8378 34.2449 36.9305 33.203 37.0321 31.5258Z" fill="black"/>
<path d="M46.9725 22.5C46.9725 34.6254 36.5948 44.5 23.7363 44.5C10.8777 44.5 0.5 34.6254 0.5 22.5C0.5 10.3746 10.8777 0.5 23.7363 0.5C36.5948 0.5 46.9725 10.3746 46.9725 22.5Z" stroke="black"/>
</svg>
